<svg width="32" height="32" viewBox="0 0 32 32" fill="none" xmlns="http://www.w3.org/2000/svg">
<path fill-rule="evenodd" clip-rule="evenodd" d="M3.24093 22.2505C2.9242 21.7537 2.91941 21.1209 3.22859 20.6193L14.8699 1.73598C15.5174 0.685696 17.0809 0.77753 17.5995 1.8963L28.2344 24.8372C28.629 25.6884 28.1748 26.6898 27.2719 26.9592L10.7285 31.8945C10.0629 32.093 9.34575 31.827 8.97369 31.2433L3.24093 22.2505ZM16.213 7.25732C16.3252 6.70181 17.0906 6.62171 17.3167 7.14181L24.6525 24.0217C24.7905 24.3396 24.6187 24.7061 24.2851 24.805L12.8549 28.1981C12.4348 28.3228 12.0323 27.9577 12.1186 27.5302L16.213 7.25732Z" fill="#2D3748"/>
</svg>
